#!OML:ASF H:\MichaelJackson\Top Level 1\Subject 1\Session 1\male.ASF
:FULLY-SPECIFIED
:DEGREES
620
root 10.1763 14.2904 -4.24063 -178.869 55.8329 -176.665
lowerback 10.3697 1.18266 -0.306548
upperback 6.95233 2.24462 6.92441
thorax 1.17353 1.27293 7.24789
lowerneck -2.96861 -14.0127 -3.27773
upperneck 20.7732 -18.9274 4.5668
head 7.66086 -8.61111 0.536323
rclavicle -4.85035e-014 4.45278e-014
rhumerus 10.0437 20.2944 -90.0837
rradius 133.068
rwrist -38.0819
rhand -24.5263 -20.561
rfingers 7.12502
rthumb 1.96911 309.468
lclavicle -4.85035e-014 4.45278e-014
lhumerus -49.399 -14.5445 96.6379
lradius 50.0318
lwrist 20.5973
lhand -20.9737 8.78927
lfingers 7.12502
lthumb 5.39971 38.7005
rfemur -50.142 10.0225 4.94298
rtibia 63.1091
rfoot -8.94066 -0.114803
rtoes -35.3488
lfemur -31.2081 -11.2278 -16.3856
ltibia 86.9854
lfoot -30.6522 -24.4593
ltoes 24.4943
621
root 10.2081 14.2481 -4.22065 -179.013 55.9107 -176.863
lowerback 10.368 1.26041 -0.380459
upperback 6.9428 2.33597 6.87707
thorax 1.15173 1.31548 7.22944
lowerneck -2.84875 -13.975 -3.30527
upperneck 20.5897 -18.885 4.66659
head 7.59013 -8.59654 0.589197
rclavicle -4.73108e-014 -6.67916e-014
rhumerus 10.1223 20.7088 -90.2767
rradius 133.001
rwrist -38.1458
rhand -24.5922 -20.2968
rfingers 7.12502
rthumb 1.90546 309.732
lclavicle -4.73108e-014 -6.67916e-014
lhumerus -49.4974 -14.0607 96.3062
lradius 49.0732
lwrist 20.4207
lhand -21.2519 9.26827
lfingers 7.12502
lthumb 5.13109 39.1862
rfemur -50.4139 9.82569 5.05272
rtibia 63.6006
rfoot -9.4568 -0.249562
rtoes -35.2972
lfemur -31.1665 -10.9591 -16.2504
ltibia 87.1962
lfoot -31.215 -24.9199
ltoes 24.9387
622
root 10.2297 14.2215 -4.20135 -179.075 55.9928 -176.972
lowerback 10.3956 1.28593 -0.385881
upperback 6.93223 2.36502 6.81733
thorax 1.12341 1.32941 7.16351
lowerneck -2.74612 -13.9177 -3.32406
upperneck 20.3843 -18.8187 4.76635
head 7.51318 -8.57195 0.642262
rclavicle 6.75868e-014 -6.36111e-014
rhumerus 10.1458 21.0553 -90.3915
rradius 132.917
rwrist -38.237
rhand -24.656 -19.9685
rfingers 7.12502
rthumb 1.84378 310.06
lclavicle 6.75868e-014 -6.36111e-014
lhumerus -49.579 -13.6864 96.0375
lradius 48.1052
lwrist 20.4426
lhand -21.5395 9.62824
lfingers 7.12502
lthumb 4.85343 39.5527
rfemur -50.6191 9.6961 5.18436
rtibia 63.8786
rfoot -9.74594 -0.353553
rtoes -35.4234
lfemur -31.0966 -10.663 -16.1264
ltibia 87.2687
lfoot -31.7463 -25.0901
ltoes 25.0321
623
root 10.2414 14.2116 -4.18278 -179.046 56.0637 -176.992
lowerback 10.4353 1.258 -0.325803
upperback 6.92321 2.32949 6.74829
thorax 1.1007 1.31323 7.05614
lowerneck -2.65552 -13.847 -3.32757
upperneck 20.1621 -18.7377 4.86841
head 7.43084 -8.54054 0.694745
rclavicle 7.67309e-014 4.77083e-015
rhumerus 10.1639 21.3235 -90.4128
rradius 132.8
rwrist -38.2796
rhand -24.7009 -19.6214
rfingers 7.12502
rthumb 1.80045 310.406
lclavicle 7.67309e-014 4.77083e-015
lhumerus -49.6327 -13.4237 95.8389
lradius 47.1287
lwrist 20.6204
lhand -21.7969 9.83345
lfingers 7.12502
lthumb 4.60485 39.7634
rfemur -50.7416 9.62715 5.32963
rtibia 63.9256
rfoot -9.83021 -0.43826
rtoes -35.649
lfemur -31.0191 -10.3574 -16.0187
ltibia 87.2119
lfoot -32.2254 -24.9396
ltoes 24.7181
624
root 10.2432 14.2185 -4.16498 -178.926 56.1065 -176.935
lowerback 10.4675 1.17097 -0.215527
upperback 6.91668 2.21986 6.67151
thorax 1.09541 1.26133 6.91965
lowerneck -2.57752 -13.7638 -3.29736
upperneck 19.9319 -18.6424 4.96482
head 7.34356 -8.50135 0.741466
rclavicle 4.57205e-014 -7.31528e-014
rhumerus 10.1978 21.522 -90.3331
rradius 132.655
rwrist -38.2281
rhand -24.7221 -19.264
rfingers 7.12502
rthumb 1.78001 310.764
lclavicle 4.57205e-014 -7.31528e-014
lhumerus -49.6503 -13.2608 95.7029
lradius 46.1611
lwrist 20.884
lhand -21.9618 9.89509
lfingers 7.12502
lthumb 4.4457 39.8284
rfemur -50.7759 9.60087 5.47641
rtibia 63.7317
rfoot -9.73505 -0.500672
rtoes -35.8815
lfemur -30.9529 -10.0738 -15.9308
ltibia 87.0229
lfoot -32.6407 -24.4792
ltoes 23.9887
625
root 10.2351 14.2421 -4.14814 -178.73 56.1139 -176.829
lowerback 10.483 1.02818 -0.0764243
upperback 6.91011 2.03813 6.58852
thorax 1.10809 1.17389 6.76794
lowerneck -2.50885 -13.6733 -3.23791
upperneck 19.7072 -18.5401 5.05913
head 7.25651 -8.45691 0.783217
rclavicle 1.15295e-014 -6.04305e-014
rhumerus 10.2394 21.6678 -90.1389
rradius 132.498
rwrist -38.053
rhand -24.7308 -18.8935
rfingers 7.12502
rthumb 1.77154 311.134
lclavicle 1.15295e-014 -6.04305e-014
lhumerus -49.6314 -13.1927 95.6317
lradius 45.2236
lwrist 21.146
lhand -21.9904 9.80999
lfingers 7.12502
lthumb 4.41807 39.7439
rfemur -50.72 9.60462 5.60328
rtibia 63.2935
rfoot -9.48258 -0.535432
rtoes -36.0758
lfemur -30.901 -9.84488 -15.8714
ltibia 86.6849
lfoot -32.9814 -23.7698
ltoes 22.9245
626
root 10.2181 14.2815 -4.1323 -178.47 56.1294 -176.706
lowerback 10.458 0.85494 0.0609022
upperback 6.90278 1.81297 6.4961
thorax 1.14595 1.06378 6.61248
lowerneck -2.45287 -13.5847 -3.14821
upperneck 19.5026 -18.4436 5.15451
head 7.17587 -8.41191 0.81897
rclavicle 2.38542e-014 7.63333e-014
rhumerus 10.296 21.7416 -89.8279
rradius 132.376
rwrist -37.7877
rhand -24.721 -18.5741
rfingers 7.12502
rthumb 1.781 311.454
lclavicle 2.38542e-014 7.63333e-014
lhumerus -49.5754 -13.2149 95.6197
lradius 44.3393
lwrist 21.3069
lhand -21.8444 9.60543
lfingers 7.12502
lthumb 4.55905 39.5364
rfemur -50.6006 9.65976 5.68849
rtibia 62.6122
rfoot -9.09025 -0.523817
rtoes -36.1906
lfemur -30.852 -9.65341 -15.8439
ltibia 86.1717
lfoot -33.2762 -22.8883
ltoes 21.6126
